<?xml version="1.0" encoding="UTF-8"?>
<svg id="svg836" xmlns="http://www.w3.org/2000/svg" xmlns:svg="http://www.w3.org/2000/svg" xmlns:sodipodi="http://sodipodi.sourceforge.net/DTD/sodipodi-0.dtd" xmlns:rdf="http://www.w3.org/1999/02/22-rdf-syntax-ns#" xmlns:inkscape="http://www.inkscape.org/namespaces/inkscape" xmlns:dc="http://purl.org/dc/elements/1.1/" xmlns:cc="http://creativecommons.org/ns#" version="1.1" viewBox="0 0 164.8 240.6">
  <defs>
    <style>
      .cls-1 {
        fill: #59b259;
        stroke-width: 0px;
      }
    </style>
  </defs>
  <sodipodi:namedview id="base" bordercolor="#666666" borderopacity="1.0" fit-margin-bottom="0" fit-margin-left="0" fit-margin-right="0" fit-margin-top="0" inkscape:current-layer="layer1" inkscape:cx="50.071392" inkscape:cy="668.68553" inkscape:document-units="mm" inkscape:pageopacity="0.0" inkscape:pageshadow="2" inkscape:window-height="986" inkscape:window-maximized="1" inkscape:window-width="1920" inkscape:window-x="1589" inkscape:window-y="-11" inkscape:zoom="0.35" pagecolor="#ffffff" showgrid="false"/>
  <g id="layer1" inkscape:groupmode="layer" inkscape:label="Layer 1">
    <path id="path1392" class="cls-1" d="M13.1,240.5c-3.8-.3-8.4-1-9.9-1.6-1.1-.4-2-1.1-2.5-1.9-.5-.7-.9-2-.7-2.1.3-.2,2.9-1.1,4.8-1.6,2.3-.6,3.9-.9,8.8-1.6,7.9-1.2,10.4-2,20.2-6.1,2.7-1.1,5.6-2.3,6.4-2.6s1.5-.6,1.5-.6c0,0-.2-.5-.6-1.1-5.3-8.7-7-23.7-4.5-39.8,1.3-8.5,4-17,7.1-22.4,1.5-2.7,2.2-3.5,5.9-7.5,2.9-3.1,4.2-5,6.3-9.4,1.5-3,2.3-5,5.3-12.2,3.2-8,4.1-10,6.4-14.6,3.3-6.5,5.9-10.7,9-14.7,3.6-4.6,4.9-6.6,5.6-8.4.4-1.1.8-3.2,1.2-6.5.1-1.1.5-3,.8-4.3,1.6-6.3,4.2-11.1,8.1-15.1,2.3-2.3,2.5-2.8,2.6-4.8.1-2.7-.5-5.3-3-12.1-2.6-7-2.8-8.1-2.7-13.5v-3.3c0,0-.4-.5-.4-.5-.2-.3-1.3-1.1-2.3-1.9-2.2-1.7-3-2.7-3.5-4.1l-.3-1h-1.4c-1.4-.1-3.3-.5-4.1-.9-.7-.3-.6-1.6.1-2.6.5-.7,3.2-2.8,7.2-5.9,3.8-2.9,4.6-3.5,6.5-5.4.9-.8,1.9-1.7,2.2-1.9,1-.6,2.1-.5,4.7.3,1.9.6,2.3.7,3.4.7,1.3,0,1.9-.2,6.3-1.7,3.6-1.3,5.3-1.4,8.8-.7,3.1.6,3.7.7,4.7.4,1.8-.5,4.4-2.5,6.2-4.8.7-.9,1.4-1.6,1.8-1.8,1.6-.9,4.6-1.2,6.7-.7,3.4.9,6.6,3.6,8.4,7.1l.4.8,2.1.7c1.1.4,2.3.7,2.5.8.3,0,.8.5,1.6,1.3.6.7,2,2.1,3.1,3.2,2,2.1,3.3,3.7,6.2,7.3,2.1,2.6,2.8,3.7,3.5,5.1.8,1.6,1.3,3.8,1.1,4.8,0,.4-.1.4-1.1.3-1.5-.1-2.5-.6-3.9-1.6-.7-.5-1.5-1.1-1.8-1.4l-.6-.4-.4.4c-1.5,1.8-2.6,2.7-5.7,4.8-2.4,1.6-2.5,1.7-2.7,2.4-.4,1.3-.4,4.7,0,7.1.2,1.3.3,3.1.3,4.4,0,3.2-.4,4.6-3.2,10.6-1.1,2.4-1.8,4.6-1.8,5.4,0,.3.1.9.2,1.4.4,1.6.3,2.6-.2,3.8-.6,1.3-.6,2.1,0,3.9.5,1.7,1.1,3.1,2.2,5,1,1.8,4.6,7.3,7.7,11.9,3,4.4,4.2,6.9,4.8,10,.3,1.6.4,3.9.2,4.6-.5,1.4-3.1,21-4.6,35.3-1.4,13.4-1.8,19.3-2.2,31.9-.4,12.3-.8,17.7-1.9,23.8-1.3,7.6-1.4,10.9-.1,14.6.4,1.3.4,1.2,3.9,3.4,2.2,1.3,3.6,2.5,4.2,3.6.5.9.6,2.3.3,3.6-.5,1.7-2.6,5.3-3.7,6.3-.8.7-1.4.9-2.9.9-1.9,0-4.1-.9-6.8-2.7-1.2-.8-1.4-.9-1.7-.7-.2.1-1.1,1.1-2,2.2-3.8,4.5-5.8,5.2-12.3,4.3-2.8-.4-5.7-.4-6.8,0-.4.1-1.4.5-2.1.8-.8.3-1.8.7-2.4.8-.9.2-1.1.2-2.9-.1-3.1-.5-6.4-.3-11.6.9-7.7,1.7-9.1,1.9-10.9,1.6-1.8-.3-3.1-1.1-4.3-2.7l-.3-.4-1.9.9c-2.7,1.4-5.8,2.3-9.6,3-2.6.4-7.5.5-9.6,0-2.9-.5-5.4-1.7-7-3.2l-.9-.8-1.9.8c-10.7,4.7-22.4,7.6-33.2,8.3-2.6.2-7.8.2-10.2,0h0ZM114.6,218.5c1.9-.3,3.5-.7,8.3-2,3.9-1,5.9-1.3,8.5-1.2,2.7,0,3.9.4,5.7,1.5,1.6,1,2,1.2,2.4,1,.2-.1.3-.3.3-.9,0-1.1-.5-1.9-2.1-3.6-1.1-1.1-1.6-1.8-2-2.5l-.5-1v-3.1c0-2.6.1-3.8.6-7.5,1.5-11.8,1.8-15.1,2.1-20.4.3-5,0-10.1-.8-13.5-.3-1.5-1.2-4.3-1.5-4.9-.2-.3-.2-.3-.9.8-.4.6-1.7,2.3-2.8,3.6-1.9,2.2-3.8,4.9-3.8,5.3s.3.2.9.3c3.2.4,5.4,2.2,6.2,5.2.4,1.5.6,4.8.4,7.4-.5,5.9-2.4,11.4-6.1,17.6-1.8,3-3.6,5.2-6.2,7.9-4,4.1-8,6.9-13.2,9.4-1,.5-1.7.9-1.6,1,.4.2,4.6,0,6.4-.4h0Z" inkscape:connector-curvature="0"/>
  </g>
</svg>