<?xml version="1.0" encoding="UTF-8"?>
<svg id="Laag_1" data-name="Laag 1" xmlns="http://www.w3.org/2000/svg" viewBox="0 0 478.42 478.42">
  <defs>
    <style>
      .cls-1 {
        fill: #092e05;
      }

      .cls-1, .cls-2 {
        stroke-width: 0px;
      }

      .cls-2 {
        fill: #90ee90;
      }
    </style>
  </defs>
  <circle class="cls-2" cx="239.21" cy="239.21" r="239.21"/>
  <g id="YqWIb2.tif">
    <g>
      <path class="cls-1" d="M313.71,379.97c28.76,1.56,42.17-10.72,40.11-31.48-1.07-10.82-5.22-21.64-9.56-31.79-12.78-29.93-31.37-55.66-59.14-73.46-18.15-11.63-37.56-20.75-60.1-14.58-17.8,4.87-33.61,13.74-47.3,26.21-27.04,24.63-45.55,54.6-53.17,90.31-4.61,21.59,10.22,37.77,32.08,34.81,22.07-2.99,43.79-8.79,65.5-14.01,11.48-2.76,22.49-2.91,33.94.03,21.63,5.57,43.42,10.53,57.64,13.94ZM325.5,152.41c0-2.24.18-4.49-.03-6.71-2.35-25.22-23.29-39.87-44.32-31.06-26.31,11.03-40.71,50.18-27.85,75.68,8.46,16.78,25.99,22.98,42.49,14.04,20.39-11.05,28.5-29.71,29.71-51.96ZM225.18,170.58c-.78-22.82-8.31-40.22-26.05-52.06-19.31-12.89-39.96-6.09-48.38,15.52-8.95,22.96,2.45,56.03,23.7,68.75,19.8,11.85,41.09,3.79,48.17-18.5,1.59-5,1.96-10.38,2.56-13.71ZM85.98,217.55c-.17,19.26,12.59,38.57,30.14,45.62,18.52,7.44,36.33-3.38,36.82-23.39.5-20.28-8.3-36.53-26.23-46.49-21.34-11.86-40.51-.13-40.73,24.25ZM325.21,233.14c-.29,26.63,18.87,39.11,39.48,28.82,17.86-8.91,26.99-24.35,27.73-43.88.92-24.11-19.11-36.36-40.41-25.05-17.3,9.18-25.07,24.74-26.79,40.11Z"/>
      <path class="cls-1" d="M313.71,379.97c-14.22-3.41-36-8.37-57.64-13.94-11.44-2.95-22.46-2.79-33.94-.03-21.72,5.22-43.44,11.02-65.5,14.01-21.86,2.96-36.69-13.22-32.08-34.81,7.62-35.71,26.12-65.69,53.17-90.31,13.7-12.47,29.5-21.33,47.3-26.21,22.54-6.17,41.95,2.94,60.1,14.58,27.78,17.8,46.36,43.53,59.14,73.46,4.33,10.15,8.49,20.96,9.56,31.79,2.05,20.75-11.36,33.04-40.11,31.48Z"/>
      <path class="cls-1" d="M325.5,152.41c-1.21,22.25-9.33,40.91-29.71,51.96-16.49,8.94-34.02,2.73-42.49-14.04-12.87-25.5,1.54-64.65,27.85-75.68,21.03-8.82,41.97,5.84,44.32,31.06.21,2.22.03,4.47.03,6.71Z"/>
      <path class="cls-1" d="M225.18,170.58c-.6,3.33-.97,8.71-2.56,13.71-7.09,22.3-28.38,30.36-48.17,18.5-21.24-12.72-32.64-45.79-23.7-68.75,8.42-21.61,29.08-28.41,48.38-15.52,17.73,11.84,25.27,29.23,26.05,52.06Z"/>
      <path class="cls-1" d="M85.98,217.55c.22-24.39,19.39-36.11,40.73-24.25,17.93,9.96,26.73,26.21,26.23,46.49-.49,20.01-18.3,30.83-36.82,23.39-17.56-7.05-30.32-26.36-30.14-45.62Z"/>
      <path class="cls-1" d="M325.21,233.14c1.73-15.37,9.49-30.93,26.79-40.11,21.31-11.31,41.34.94,40.41,25.05-.75,19.53-9.88,34.97-27.73,43.88-20.61,10.29-39.77-2.19-39.48-28.82Z"/>
    </g>
  </g>
</svg>